<?xml version="1.0" encoding="utf-8"?>
<svg width="64.488" height="67.872" viewBox="0 0 64.488 67.872" fill="none" xmlns="http://www.w3.org/2000/svg">
  <g>
    <path d="M40.3467 0L28.2781 8.76413L26.4317 10.105L20.9595 14.0789L10.5098 21.6673L10.4347 21.722L10.5098 21.7766L20.9595 29.3649L23.4675 31.1863L24.2454 31.7512L23.2906 32.4446L10.5247 41.7151L10.5098 41.7046L10.5098 41.7258L0.0563431 49.3173L0 49.3582L0.0691452 49.4084L10.5098 56.9903L10.5098 57.0118L10.5247 57.0013L20.8968 49.469L21.0495 49.3582L34.7703 39.3942L34.8043 39.4188L34.8119 39.3639L36.7544 25.5491L34.7703 24.1082L31.4843 21.722L37.9531 17.0244L38.587 12.5145L40.3467 0L40.3467 0Z" fill="#FFD33F" fill-rule="evenodd" transform="translate(24.141 10.86)" />
    <path d="M29.8806 0L13.9625 5.79093L11.8862 6.54629L11.7931 6.58018L0 10.8705L1.76044 23.3904L3.13116 33.1392L4.92016 45.8623L5.52491 50.1635L5.53144 50.2097L5.56002 50.1891L16.0848 57.8321L18.8182 55.8471L26.6095 50.1891L17.0462 43.2442L16.8681 41.9773L16.2567 37.6296L13.9255 21.0502L13.6466 19.0663L26.0363 14.5589L29.8806 13.1603L43.253 18.0251L46.5529 15.6288L55.3266 9.25726L47.9682 6.58018L47.8321 6.53069L29.8806 6.51597e-05L29.8806 0L29.8806 0Z" fill="#000000" fill-rule="evenodd" />
  </g>
</svg>